<svg xmlns="http://www.w3.org/2000/svg" width="24" height="24" viewBox="0 0 24 24">
    <path d="M10.033 4.037a.468.468 0 0 1 .015-.001c.11-.01.19-.005.23 0a.46.46 0 0 1 .124.03c.458.09 1.276.437 2.066 1.75a.46.46 0 0 1-.193.63.46.46 0 0 1-.217.07.46.46 0 0 1-.395-.226c-.708-1.17-1.366-1.314-1.524-1.335-.291.042-2.009.51-2.924 5.81-1.482 8.28-3.823 8.695-4.278 8.695a.46.46 0 1 1 0-.92c.082 0 2.051-.46 3.371-7.935.995-5.74 2.995-6.493 3.725-6.568zm5.652.008a.464.464 0 0 1 .132-.013c.08-.004.138 0 .17.004.031.003.062.01.09.019.794.14 2.68 1.062 3.65 6.55 1.343 7.604 3.358 7.935 3.376 7.935a.46.46 0 1 1 0 .92h-.023c-.46 0-2.797-.423-4.26-8.694-.921-5.215-2.604-5.757-2.943-5.81-.172.013-1.995.278-2.972 5.814-1.463 8.276-3.8 8.69-4.26 8.69a.46.46 0 0 1-.023-.92c.083 0 2.056-.46 3.377-7.935 1-5.579 2.92-6.447 3.686-6.56zM23.08 23.54H1.46a.46.46 0 0 1-.46-.46V1.46a.46.46 0 0 1 .92 0v21.16h21.16a.46.46 0 1 1 0 .92zm-5.713-4.08c-.428 0-2.622-.382-4.094-7.82a.469.469 0 1 1 .92-.18c1.338 6.785 3.22 7.084 3.22 7.084a.46.46 0 1 1 0 .92l-.046-.004z"/>
</svg>
