<svg xmlns="http://www.w3.org/2000/svg" xmlns:xlink="http://www.w3.org/1999/xlink" width="24" height="24" viewBox="0 0 24 24">
    <path id="a" d="M18.172 16.997c2.324-1.89 3.823-4.273 3.823-4.998 0-1.25-4.473-7.497-9.996-7.497a9.163 9.163 0 0 0-4.806 1.516L3.428 2.245a.836.836 0 0 0-1.183 1.183l18.326 18.326a.833.833 0 0 0 1.183 0 .833.833 0 0 0 0-1.183l-3.582-3.574zm-3.332-3.332l-4.507-4.531a3.332 3.332 0 0 1 4.532 4.531h-.025zm-5.34.517L4.036 8.717C2.76 10.133 2.003 11.491 2.003 12c0 1.25 4.474 7.497 9.996 7.497a8.113 8.113 0 0 0 2.416-.4l-4.598-4.598a2.84 2.84 0 0 1-.317-.316z"/>
</svg>
