<svg xmlns="http://www.w3.org/2000/svg" width="24" height="24" viewBox="0 0 24 24">
    <path d="M12.367 11.679a6.7 6.7 0 0 0-.391 2.195.512.512 0 0 1-.505.51.512.512 0 0 1-.509-.515 7.684 7.684 0 0 1 .65-3.01c-.334-.85-1.388-4.01.354-6.362 1.66-2.24 5.297-2.982 10.83-2.189.142.019.27.097.351.216.08.121.106.27.072.412-.092.35-1.952 8.136-6.195 9.62-.458.164-.94.25-1.426.252a6.07 6.07 0 0 1-3.231-1.13zm-.083-2.084c.954-1.508 2.416-2.924 4.353-4.202a.505.505 0 0 1 .539-.075.515.515 0 0 1 .016.93c-2.086 1.374-3.551 2.858-4.387 4.438 1.393 1.02 2.707 1.323 3.908.88 3.092-1.07 4.86-6.55 5.354-8.316-4.732-.602-7.931.036-9.286 1.864-1.055 1.428-.812 3.32-.497 4.481zM22.796 22H1.15a1.143 1.143 0 0 1-.94-.488 1.17 1.17 0 0 1-.145-1.057L3.759 9.29c.148-.441.558-.737 1.019-.737h5.328c.281 0 .51.23.51.515a.512.512 0 0 1-.51.515H5.104a.51.51 0 0 0-.484.356L1.196 20.28a.52.52 0 0 0 .077.476.507.507 0 0 0 .433.204h20.652a.507.507 0 0 0 .419-.196c.1-.13.134-.3.09-.458l-2.109-7.59a.516.516 0 0 1 .352-.634c.27-.076.55.083.626.355l2.221 8.044c.1.364.024.754-.205 1.053a1.183 1.183 0 0 1-.956.466z"/>
</svg>
