<svg xmlns="http://www.w3.org/2000/svg" viewBox="0 0 24 24">
    <path d="M15.693 21.34h-4.367v2.176a.484.484 0 0 1-.97 0V21.34H5.019v-2.235c0-.77.625-1.393 1.397-1.393h1.271v-4.837c0-.058.068-5.805 5.822-5.805 5.755 0 5.822 5.747 5.822 5.805v4.837h1.18c.395-.001.775.155 1.054.434.28.279.436.657.435 1.051v2.143h-5.337v2.177a.484.484 0 0 1-.97 0V21.34zm2.668-3.629v-4.837c0-.199-.073-4.838-4.852-4.838s-4.852 4.64-4.852 4.838v4.837h9.704zM5.99 20.371h15.04v-1.175a.518.518 0 0 0-.519-.517H6.44a.428.428 0 0 0-.427.425l-.024 1.268zm10.78-7.904a.484.484 0 0 1-.484-.483c0-2.095-1.941-2.173-2.184-2.177a.484.484 0 1 1 0-.968c1.092 0 3.154.658 3.154 3.145a.484.484 0 0 1-.485.483zM4.728 7.402a.487.487 0 0 1-.116 0 .484.484 0 0 1-.354-.585A5.874 5.874 0 0 1 6.944 3.19a5.905 5.905 0 0 1 4.474-.66.484.484 0 1 1-.238.94 4.93 4.93 0 0 0-5.982 3.565.485.485 0 0 1-.47.367zm2.47 1.021h-.121a.484.484 0 0 1-.35-.585 4.004 4.004 0 0 1 4.852-2.903.485.485 0 0 1-.238.939A3.033 3.033 0 0 0 7.673 8.06a.485.485 0 0 1-.476.363zM2.486 6.57h-.117a.485.485 0 0 1-.354-.59C3.084 1.75 7.386-.82 11.632.238a.484.484 0 1 1-.233.938C7.676.246 3.9 2.494 2.957 6.203a.485.485 0 0 1-.471.367z"/>
</svg>
