<svg viewBox="0 0 160 60" version="1.1" xmlns="http://www.w3.org/2000/svg" xmlns:xlink="http://www.w3.org/1999/xlink">
    <title>Annevo Logo</title>
    <g transform="translate(-72.000000, -286.000000)">
        <g transform="translate(32.000000, 256.000000)">
            <path d="M49.5,53.4782609 L56.7,53.4782609 L53.1857143,37.826087 L49.5,53.4782609 Z M59.8285714,67.0776907 L57.9428571,58.7811832 L48.2571429,58.7811832 L46.3285714,67.0776907 L40.2857143,67.0776907 L49.5857143,30.513186 L57.7714286,30.513186 L66.9857143,67.0776907 L59.8285714,67.0776907 Z M75.5571429,30.5559515 L87.2142857,54.0342124 L87.2142857,30.5559515 L93.1285714,30.5559515 L93.1285714,67.1204562 L86.9142857,67.1204562 L74.7428571,43.2145403 L74.7428571,67.1204562 L68.7857143,67.1204562 L68.7857143,30.5559515 L75.5571429,30.5559515 Z M101.7,30.5559515 L113.357143,54.0342124 L113.357143,30.5559515 L119.271429,30.5559515 L119.271429,67.1204562 L113.057143,67.1204562 L100.842857,43.1722024 L100.842857,67.0776907 L94.8857143,67.0776907 L94.8857143,30.513186 L101.7,30.513186 L101.7,30.5559515 Z M138.771429,30.5559515 L138.771429,36.2437634 L127.842857,36.2437634 L127.842857,45.3528154 L137.014286,45.3528154 L137.014286,51.0406272 L127.842857,51.0406272 L127.842857,61.4326443 L139.242857,61.4326443 L139.242857,67.1204562 L121.028571,67.1204562 L121.028571,30.5559515 L138.771429,30.5559515 Z M147.771429,30.5559515 L154.114286,58.9522452 L160.628571,30.5559515 L166.714286,30.5559515 L157.328571,67.1204562 L149.828571,67.1204562 L140.571429,30.5559515 L147.771429,30.5559515 Z M189.342857,62.6300784 C187.2,65.8802566 183.514286,67.6336422 178.671429,67.6336422 C173.914286,67.6336422 170.314286,65.8802566 168.171429,62.6300784 C166.157143,59.5509622 165.471429,55.10335 165.471429,48.7312901 C165.471429,42.3592302 166.157143,38.08268 168.171429,35.0035638 C170.314286,31.7533856 174,30 178.8,30 C183.642857,30 187.242857,31.7533856 189.385714,35.0035638 C191.4,38.08268 192.085714,42.3592302 192.085714,48.6457591 C192,55.017819 191.314286,59.5509622 189.342857,62.6300784 Z M183.385714,59.4654312 C184.371429,57.6265146 184.757143,54.8895225 184.757143,48.8168211 C184.757143,42.7441197 184.371429,40.0071276 183.385714,38.168211 C182.4,36.3720599 180.857143,35.5595153 178.757143,35.5595153 C176.7,35.5595153 175.114286,36.3292944 174.128571,38.168211 C173.142857,40.0071276 172.714286,42.7441197 172.714286,48.8168211 C172.714286,54.8895225 173.142857,57.6265146 174.128571,59.4654312 C175.114286,61.3043478 176.7,62.0741269 178.757143,62.0741269 C180.857143,62.0741269 182.442857,61.2615823 183.385714,59.4654312 Z M199.714286,63.442623 C199.714286,65.8802566 198.085714,67.4198147 195.728571,67.4198147 C193.328571,67.4198147 191.785714,65.8802566 191.785714,63.442623 C191.785714,61.0049893 193.328571,59.4226657 195.728571,59.4226657 C198.085714,59.4226657 199.714286,61.0049893 199.714286,63.442623 Z M63.5142857,90 L63.5142857,85.2530292 L176.485714,85.2530292 L176.485714,90 L63.5142857,90 Z" id="logo-path"></path>
        </g>
    </g>
</svg>