<svg xmlns="http://www.w3.org/2000/svg" width="24" height="24" viewBox="0 0 24 24">
    <path d="M16.501 2.108C21.057 3.854 24 7.988 24 12.639 24 18.903 18.617 24 12 24S0 18.903 0 12.64C0 7.99 2.943 3.855 7.498 2.11c.187-.072.383-.108.583-.108.637 0 1.203.36 1.441.92a1.39 1.39 0 0 1-.009 1.126 1.508 1.508 0 0 1-.848.79C5.29 6.132 3.11 9.194 3.11 12.639c0 4.641 3.989 8.418 8.891 8.418s8.891-3.776 8.891-8.418c0-3.446-2.181-6.509-5.556-7.803-.795-.304-1.18-1.164-.858-1.916.239-.56.805-.92 1.441-.92.2 0 .397.036.583.108zM12.03 10c-.553 0-1-.524-1-1.171V1.171c0-.647.447-1.171 1-1.171.552 0 1 .524 1 1.171v7.658c0 .647-.448 1.171-1 1.171z"/>
</svg>
