<svg xmlns="http://www.w3.org/2000/svg" width="24" height="24" viewBox="0 0 24 24">
    <g fill="none" fill-rule="evenodd">
        <path d="M0 0h24v24H0z"/>
        <path fill="#6EBD8F" d="M12.313 13.126c-.588-.003-1.062-.466-1.06-1.034.003-.569.482-1.028 1.069-1.025.587.002 1.062.465 1.06 1.034a1.013 1.013 0 0 1-.316.726c-.2.192-.471.3-.753.299zm0-1.357a.337.337 0 0 0-.343.332c0 .183.154.33.343.33.189 0 .342-.147.342-.33a.322.322 0 0 0-.099-.236.344.344 0 0 0-.243-.096zm.032 9.977C6.635 21.75 2.005 17.273 2 11.747c0-.203.17-.367.379-.367.21 0 .379.164.379.367-.003 4.515 3.351 8.376 7.947 9.148 4.596.772 9.099-1.77 10.668-6.02 1.57-4.252-.251-8.98-4.312-11.2a.36.36 0 0 1-.123-.49.385.385 0 0 1 .497-.147c4.092 2.234 6.11 6.859 4.914 11.255-1.196 4.397-5.307 7.46-10.004 7.453zm0-5.854c-2.364-.003-4.28-1.857-4.282-4.145 0-.203.17-.367.379-.367s.378.164.378.367c0 1.658 1.233 3.076 2.92 3.36 1.688.284 3.342-.647 3.921-2.207.58-1.56-.084-3.297-1.572-4.118a.36.36 0 0 1-.137-.5.373.373 0 0 1 .228-.173.385.385 0 0 1 .288.037c1.688.93 2.517 2.846 2.019 4.664-.498 1.818-2.199 3.083-4.142 3.082zm0 2.925c-4.034 0-7.305-3.165-7.305-7.07 0-.203.17-.367.38-.367.209 0 .378.164.378.367-.005 3.09 2.293 5.734 5.439 6.259 3.146.524 6.225-1.223 7.29-4.136 1.063-2.914-.198-6.145-2.987-7.65a.365.365 0 0 1-.194-.316.365.365 0 0 1 .185-.32.39.39 0 0 1 .38-.005c2.92 1.564 4.374 4.845 3.53 7.971-.842 3.126-3.767 5.302-7.105 5.285l.009-.018z"/>
    </g>
</svg>
