<svg xmlns="http://www.w3.org/2000/svg" width="24" height="24" viewBox="0 0 24 24">
    <g fill="none" fill-rule="evenodd">
        <path d="M0 0h24v24H0z"/>
        <path fill="#6EBD8F" d="M15.401 9.216a.459.459 0 0 1-.07.092l-.715.73a4.29 4.29 0 0 1 1.012 2.78c-.003 2.345-1.86 4.246-4.149 4.246-2.288-.003-4.141-1.905-4.14-4.25.002-2.344 1.858-4.243 4.146-4.242a4.06 4.06 0 0 1 2.472.84l.741-.757a.452.452 0 0 1 .079-.064.94.94 0 0 1 .227-.911l3.7-3.786a.884.884 0 0 1 .867-.238.91.91 0 0 1 .635.65.936.936 0 0 1-.232.89L16.27 8.98a.887.887 0 0 1-.869.235zm-2.089.854a3.192 3.192 0 0 0-1.833-.578c-1.792.003-3.243 1.493-3.241 3.329.001 1.836 1.455 3.323 3.247 3.323 1.792-.001 3.245-1.49 3.245-3.326 0-.781-.268-1.534-.753-2.13l-2.359 2.406a.444.444 0 0 1-.318.138.444.444 0 0 1-.315-.134.466.466 0 0 1 0-.653l2.327-2.375zM12.19 23.554h-1.424a1.424 1.424 0 0 1-1.028-.427 1.495 1.495 0 0 1-.426-1.05v-.344a8.862 8.862 0 0 1-2.479-1.054l-.215.235a1.417 1.417 0 0 1-2.034 0l-1.015-1.021a1.49 1.49 0 0 1-.422-1.042c0-.391.152-.766.422-1.042l.243-.249a9.209 9.209 0 0 1-1.033-2.539h-.337c-.792 0-1.436-.655-1.441-1.467V12.09c0-.816.645-1.477 1.441-1.477h.337a9.209 9.209 0 0 1 1.033-2.539l-.243-.248a1.49 1.49 0 0 1-.422-1.042c0-.391.152-.766.422-1.042l1.006-1.03a1.417 1.417 0 0 1 2.034 0l.242.253a8.756 8.756 0 0 1 2.46-1.072v-.336c0-.814.643-1.474 1.437-1.477h1.424c.796 0 1.44.661 1.44 1.477v.336a8.881 8.881 0 0 1 1.756.653.466.466 0 0 1 .207.616.445.445 0 0 1-.602.212 7.712 7.712 0 0 0-1.899-.662l-.36-.074V3.558a.55.55 0 0 0-.542-.557h-1.406a.536.536 0 0 0-.393.158.563.563 0 0 0-.163.399v1.09l-.36.074a7.942 7.942 0 0 0-2.833 1.205l-.305.212-.754-.778a.534.534 0 0 0-.768 0l-.988 1.03a.571.571 0 0 0 0 .787l.759.773-.207.313a8.355 8.355 0 0 0-1.176 2.902l-.072.368H2.441a.55.55 0 0 0-.543.557v1.463c.005.304.246.55.543.552h1.064l.072.368a8.355 8.355 0 0 0 1.176 2.902l.207.313-.759.773a.536.536 0 0 0-.157.391c0 .147.056.287.157.391l1.006 1.03a.534.534 0 0 0 .768 0l.754-.772.305.207a8.013 8.013 0 0 0 2.833 1.205l.36.073v1.09c0 .306.24.555.538.557h1.424a.537.537 0 0 0 .384-.163.564.564 0 0 0 .159-.393v-1.09l.359-.074a7.942 7.942 0 0 0 2.833-1.205l.305-.207.755.772a.534.534 0 0 0 .767 0l.988-1.03a.559.559 0 0 0 0-.782l-.736-.768.202-.313c.57-.883.97-1.87 1.176-2.907l.072-.368h1.082a.55.55 0 0 0 .525-.552V12.09a.55.55 0 0 0-.525-.557h-1.082l-.072-.368a8.202 8.202 0 0 0-.52-1.674.47.47 0 0 1-.009-.352.455.455 0 0 1 .237-.255.44.44 0 0 1 .345-.007c.112.045.2.133.248.246.209.48.376.98.498 1.49h.355c.796 0 1.441.661 1.441 1.477v1.463c-.005.812-.648 1.467-1.44 1.467h-.338a9.326 9.326 0 0 1-1.028 2.54l.243.248c.27.276.421.65.421 1.042 0 .39-.151.765-.421 1.042l-1.029 1.02a1.421 1.421 0 0 1-2.033 0l-.243-.252a8.752 8.752 0 0 1-2.478 1.058v.345c.003.394-.147.773-.418 1.053-.27.28-.639.437-1.023.437zm4.566-19.288a.45.45 0 0 1-.414-.285.468.468 0 0 1 .1-.501l2.298-2.346a.441.441 0 0 1 .633 0 .466.466 0 0 1 0 .653l-2.299 2.346a.444.444 0 0 1-.318.133zm3.3 3.377a.449.449 0 0 1-.418-.284.468.468 0 0 1 .099-.503l2.276-2.327a.441.441 0 0 1 .633 0c.174.179.174.469 0 .648L20.37 7.51a.444.444 0 0 1-.314.134z"/>
    </g>
</svg>
