<svg xmlns="http://www.w3.org/2000/svg" width="24" height="24" viewBox="0 0 24 24">
    <g fill="none" fill-rule="evenodd">
        <path d="M0 0h24v24H0z"/>
        <path fill="#6EBD8F" d="M11.537 13.652H4.263v4.055H6.61v4.844H1v-4.844h2.347v-4.953h8.19V7.771H8.045V1h7.906v6.77h-3.497v4.984h8.195v4.953H23v4.844h-5.62v-4.844h2.352v-4.055h-7.278v4.055h2.351v4.844H9.19v-4.844h2.347v-4.055zm-2.576-6.78h6.073V1.899H8.961v4.975zM1.917 21.654h3.78v-3.049h-3.78v3.05zm8.19 0h3.781v-3.049h-3.78v3.05zm8.195 0h3.781v-3.049h-3.785l.004 3.05z"/>
    </g>
</svg>
